# xmcd
#
# Track frame offsets:
#	150
#	11625
#	28017
#	37043
#	48157
#	59171
#	70203
#	106843
#	118915
#	130123
#	143196
#	153425
#	166767
#
# Disc length: 2368 seconds
#
# Revision: 1
# Processed by: cddbd v1.5.2PL0 Copyright (c) Steve Scherf et al.
# Submitted via: audiograbber 1.83.01
#
DISCID=b3093e0d
DTITLE=Elvis Presley - Christmas Duets
DYEAR=2008
DGENRE=Blues
TTITLE0=Elvis Presley with Martina McBride - Blue Christmas
TTITLE1=Elvis Presley with Carrie Underwood - I'll be home for Christmas
TTITLE2=Elvis Presley with LeAnn Rimes - Here comes Santa Claus (right down San
TTITLE2=ta Claus lane)
TTITLE3=Elvis Presley with Wynonna Judd - Santa Claus is back to town
TTITLE4=Elvis Presley with Sara Evans - Silent night
TTITLE5=Elvis Presley with Amy Grant - White Christmas
TTITLE6=Elvis Presley with Gretchen Wilson - Merry Christmas baby
TTITLE7=Elvis Presley with Karen Fairchild and Kimberly Schlapman - Oh little tow
TTITLE7=n of Bethlehem
TTITLE8=Elvis Presley with Anne Murray - Silver bells
TTITLE9=Elvis Presley with Olivia Newton-John - Oh come All Ye Faithful
TTITLE10=Elvis Presley - The first Noel (2008)
TTITLE11=Elvis Presley - If I get home on Christmas day (2008)
TTITLE12=Elvis Presley - Winter wonderland (2008)
EXTD=
EXTT0=
EXTT1=
EXTT2=
EXTT3=
EXTT4=
EXTT5=
EXTT6=
EXTT7=
EXTT8=
EXTT9=
EXTT10=
EXTT11=
EXTT12=
PLAYORDER=
